<svg width="800" height="800" viewBox="0 0 800 800" fill="none" xmlns="http://www.w3.org/2000/svg">
<rect width="800" height="800" fill="#B6D3B5"/>
<path d="M159.583 287H171.159L180.593 377.11H150L159.583 287Z" fill="#93642D"/>
<path d="M159.5 287H171L176 335.5H154.5L159.5 287Z" fill="#714D22"/>
<path d="M200.067 327.268C211.607 328.432 203.962 314.554 198.383 302.214C192.805 289.873 180.737 266.659 162.213 266.659C147.033 266.659 118.269 321.129 125.005 326.254C130.394 330.353 143.044 327.136 151.464 320.683C153.99 326.377 157.804 329.042 163.866 329.498C169.929 329.954 173.465 325.808 178.236 320.683C179.92 322.581 190 326.254 200.067 327.268Z" fill="#66A865"/>
<path fill-rule="evenodd" clip-rule="evenodd" d="M197.891 300.833C190.935 287.143 178.911 269 161.841 269C153.062 269 140.099 285.772 131 302.298C137.193 301.671 144.545 298.692 150.163 294.385C152.908 300.572 157.413 307.005 164 307.5C170.587 307.995 175.5 301.54 179.25 294.385C180.795 296.126 188.841 299.241 197.891 300.833Z" fill="#458244"/>
<path d="M200.067 295.912C211.112 299.454 203.962 283.197 198.383 270.857C192.805 258.517 180.737 235.302 162.213 235.302C147.033 235.302 118.269 289.772 125.005 294.897C130.394 298.997 143.044 288.948 151.464 282.495C153.99 288.189 157.804 297.686 163.866 298.141C169.929 298.597 173.465 287.619 178.236 282.495C179.92 284.393 190 292.683 200.067 295.912Z" fill="#83C082"/>
<path fill-rule="evenodd" clip-rule="evenodd" d="M192.685 258.174C195.358 263.865 197.314 268.032 197 268C188.444 267.141 178.524 263.363 177.093 261.756C174.159 267.333 169.652 270.886 164.5 270.5C159.348 270.114 154.647 265.823 152.5 261C145.344 266.466 132.068 268.5 133 267C134.595 264.435 136.085 261.6 137.504 258.621C146.037 244.953 156.43 233 163.842 233C172.797 233 180.363 237.993 186.538 244.717C186.856 245.519 187.175 246.283 187.5 247C189.264 250.89 191.1 254.8 192.685 258.174Z" fill="#458244"/>
<path d="M196.5 259C204.5 261.75 198.53 247.565 194 237.5C189.47 227.435 178.038 211.564 163.033 210.498C149 209.5 126.03 253.32 131.5 257.5C135.876 260.844 147.466 254.252 154.304 248.988C156.355 253.632 159.452 261.378 164.376 261.75C169.299 262.121 172.17 253.168 176.045 248.988C177.413 250.536 189.367 256.548 196.5 259Z" fill="#66A865"/>
<path fill-rule="evenodd" clip-rule="evenodd" d="M190.046 229.918C191.675 232.79 192.671 234.549 192.5 234.5C192.129 234.394 191.671 234.266 191.147 234.12C186.735 232.887 177.636 230.343 176 228.5C175.001 229.753 174.098 230.918 173.272 231.984C169.611 236.708 167.447 239.5 165 239.5C161.927 239.5 160.1 236.859 157.776 233.5C156.686 231.925 155.487 230.193 154 228.5C144.852 235.512 138.5 235 138.5 235C138.5 235 141.879 222.482 147.797 211.16C153.186 205.063 158.52 201 162.842 201C168.155 201 172.979 202.758 177.314 205.592C177.376 205.727 177.438 205.863 177.5 206C181.483 214.811 186.925 224.411 190.046 229.918Z" fill="#458244"/>
<path d="M188.964 227.46C195.734 231.356 191.573 218.763 187.836 210.321C184.099 201.88 176.013 186 163.602 186C153.432 186 134.16 223.261 138.674 226.766C142.284 229.571 150.759 222.697 156.4 218.282C158.093 222.178 160.648 228.674 164.71 228.986C168.772 229.297 171.141 221.788 174.337 218.282C175.466 219.581 183.548 224.344 188.964 227.46Z" fill="#83C082"/>
<path d="M260.583 346.516H272.159L281.593 436.625H251L260.583 346.516Z" fill="#93642D"/>
<path d="M260.5 346.516H272L277 395.016H255.5L260.5 346.516Z" fill="#714D22"/>
<path d="M301.067 386.784C312.607 387.947 304.962 374.07 299.383 361.729C293.805 349.389 281.737 326.175 263.213 326.175C248.033 326.175 219.269 380.644 226.005 385.769C231.394 389.869 244.044 386.652 252.464 380.199C254.99 385.893 258.804 388.558 264.866 389.014C270.929 389.469 274.465 385.323 279.236 380.199C280.92 382.097 291 385.769 301.067 386.784Z" fill="#83C082"/>
<path fill-rule="evenodd" clip-rule="evenodd" d="M298.891 360.349C291.935 346.658 279.911 328.516 262.841 328.516C254.062 328.516 241.099 345.287 232 361.814C238.193 361.187 245.545 358.207 251.163 353.901C253.908 360.088 258.413 366.521 265 367.016C271.587 367.511 276.5 361.056 280.25 353.901C281.795 355.642 289.841 358.757 298.891 360.349Z" fill="#458244"/>
<path d="M301.067 355.428C312.112 358.97 304.962 342.713 299.383 330.373C293.805 318.032 281.737 294.818 263.213 294.818C248.033 294.818 219.269 349.288 226.005 354.413C231.394 358.513 244.044 348.464 252.464 342.01C254.99 347.705 258.804 357.202 264.866 357.657C270.929 358.113 274.465 347.135 279.236 342.01C280.92 343.908 291 352.199 301.067 355.428Z" fill="#66A865"/>
<path fill-rule="evenodd" clip-rule="evenodd" d="M293.685 317.689C296.358 323.381 298.314 327.547 298 327.516C289.444 326.656 279.524 322.879 278.093 321.271C275.159 326.849 270.652 330.402 265.5 330.016C260.348 329.63 255.647 325.339 253.5 320.516C246.344 325.982 233.068 328.016 234 326.516C235.595 323.95 237.085 321.116 238.504 318.136C247.037 304.469 257.43 292.516 264.842 292.516C273.797 292.516 281.363 297.509 287.538 304.233C287.856 305.035 288.175 305.799 288.5 306.516C290.265 310.405 292.101 314.315 293.685 317.689Z" fill="#458244"/>
<path d="M297.5 318.516C305.5 321.265 299.53 307.081 295 297.016C290.47 286.951 281.506 268.082 266.5 267.016C252.467 266.018 227.03 312.836 232.5 317.016C236.876 320.36 248.466 313.767 255.304 308.504C257.355 313.148 260.452 320.894 265.376 321.265C270.299 321.637 273.17 312.684 277.045 308.504C278.413 310.052 290.367 316.064 297.5 318.516Z" fill="#83C082"/>
<path d="M637.583 572.516H649.159L658.593 662.625H628L637.583 572.516Z" fill="#93642D"/>
<path d="M637.5 572.516H649L654 621.016H632.5L637.5 572.516Z" fill="#714D22"/>
<path d="M678.067 612.784C689.607 613.947 681.962 600.07 676.383 587.729C670.805 575.389 658.737 552.175 640.213 552.175C625.033 552.175 596.269 606.644 603.005 611.769C608.394 615.869 621.044 612.652 629.464 606.199C631.99 611.893 635.804 614.558 641.866 615.014C647.929 615.469 651.465 611.323 656.236 606.199C657.92 608.097 668 611.769 678.067 612.784Z" fill="#83C082"/>
<path fill-rule="evenodd" clip-rule="evenodd" d="M675.891 586.349C668.935 572.658 656.911 554.516 639.841 554.516C631.062 554.516 618.099 571.287 609 587.814C615.193 587.187 622.545 584.207 628.163 579.901C630.908 586.088 635.413 592.521 642 593.016C648.587 593.511 653.5 587.056 657.25 579.901C658.795 581.642 666.841 584.757 675.891 586.349Z" fill="#458244"/>
<path d="M678.067 581.428C689.112 584.97 681.962 568.713 676.383 556.373C670.805 544.032 658.737 520.818 640.213 520.818C625.033 520.818 596.269 575.288 603.005 580.413C608.394 584.513 621.044 574.464 629.464 568.01C631.99 573.705 635.804 583.202 641.866 583.657C647.929 584.113 651.465 573.135 656.236 568.01C657.92 569.908 668 578.199 678.067 581.428Z" fill="#66A865"/>
<path fill-rule="evenodd" clip-rule="evenodd" d="M670.685 543.689C673.358 549.381 675.314 553.547 675 553.516C666.444 552.656 656.524 548.879 655.093 547.271C652.159 552.849 647.652 556.402 642.5 556.016C637.348 555.63 632.647 551.339 630.5 546.516C623.344 551.982 610.068 554.016 611 552.516C612.595 549.95 614.085 547.116 615.504 544.136C624.037 530.469 634.43 518.516 641.842 518.516C650.797 518.516 658.363 523.509 664.538 530.233C664.856 531.035 665.175 531.799 665.5 532.516C667.265 536.405 669.101 540.315 670.685 543.689Z" fill="#458244"/>
<path d="M674.5 544.516C682.5 547.265 676.53 533.081 672 523.016C667.47 512.951 658.506 494.082 643.5 493.016C629.467 492.018 604.03 538.836 609.5 543.016C613.876 546.36 625.466 539.767 632.304 534.504C634.355 539.148 637.452 546.894 642.376 547.265C647.299 547.637 650.17 538.684 654.045 534.504C655.413 536.052 667.367 542.064 674.5 544.516Z" fill="#83C082"/>
<path d="M185.583 398H197.159L206.593 461.11H176L185.583 398Z" fill="#93642D"/>
<path d="M185.5 398H197L202 431.968H180.5L185.5 398Z" fill="#714D22"/>
<path d="M226.067 426.966C237.607 428.129 229.962 414.251 224.383 401.911C218.805 389.571 206.737 366.357 188.213 366.357C173.033 366.357 144.269 420.826 151.005 425.951C156.394 430.051 169.044 426.834 177.464 420.38C179.99 426.075 183.804 428.74 189.866 429.196C195.929 429.651 199.465 425.505 204.236 420.38C205.92 422.279 216 425.951 226.067 426.966Z" fill="#66A865"/>
<path fill-rule="evenodd" clip-rule="evenodd" d="M223.891 400.531C216.935 386.84 204.911 368.698 187.841 368.698C179.062 368.698 166.099 385.469 157 401.996C163.193 401.369 170.545 398.389 176.163 394.083C178.908 400.27 183.413 406.703 190 407.198C196.587 407.693 201.5 401.238 205.25 394.083C206.795 395.824 214.841 398.939 223.891 400.531Z" fill="#458244"/>
<path d="M226.067 395.609C237.112 399.151 229.962 382.895 224.383 370.555C218.805 358.214 206.737 335 188.213 335C173.033 335 144.269 389.47 151.005 394.595C156.394 398.694 169.044 388.646 177.464 382.192C179.99 387.886 183.804 397.383 189.866 397.839C195.929 398.295 199.465 387.317 204.236 382.192C205.92 384.09 216 392.38 226.067 395.609Z" fill="#66A865"/>
<path d="M679.583 621H691.159L700.593 684.11H670L679.583 621Z" fill="#93642D"/>
<path d="M679.5 621H691L696 654.968H674.5L679.5 621Z" fill="#714D22"/>
<path d="M720.067 649.966C731.607 651.129 723.962 637.251 718.383 624.911C712.805 612.571 700.737 589.357 682.213 589.357C667.033 589.357 638.269 643.826 645.005 648.951C650.394 653.051 663.044 649.834 671.464 643.38C673.99 649.075 677.804 651.74 683.866 652.196C689.929 652.651 693.465 648.505 698.236 643.38C699.92 645.279 710 648.951 720.067 649.966Z" fill="#66A865"/>
<path fill-rule="evenodd" clip-rule="evenodd" d="M717.891 623.531C710.935 609.84 698.911 591.698 681.841 591.698C673.062 591.698 660.099 608.469 651 624.996C657.193 624.369 664.545 621.389 670.163 617.083C672.908 623.27 677.413 629.703 684 630.198C690.587 630.693 695.5 624.238 699.25 617.083C700.795 618.824 708.841 621.939 717.891 623.531Z" fill="#458244"/>
<path d="M720.067 618.609C731.112 622.151 723.962 605.895 718.383 593.555C712.805 581.214 700.737 558 682.213 558C667.033 558 638.269 612.47 645.005 617.595C650.394 621.694 663.044 611.646 671.464 605.192C673.99 610.886 677.804 620.383 683.866 620.839C689.929 621.295 693.465 610.317 698.236 605.192C699.92 607.09 710 615.38 720.067 618.609Z" fill="#66A865"/>
</svg>
